<?xml version="1.0" encoding="UTF-8"?>
<svg id="Layer_2" data-name="Layer 2" xmlns="http://www.w3.org/2000/svg" viewBox="0 0 373.1 96.83">
  <defs>
    <style>
      .cls-1 {
        fill: #ff6b6b;
      }

      .cls-2 {
        fill: #fff;
      }
    </style>
  </defs>
  <g id="Layer_1-2" data-name="Layer 1">
    <g>
      <g>
        <g>
          <path class="cls-2" d="M328.36,47.8l.57-.21c.27.8.87,1.22,1.67,1.22.76,0,1.27-.39,1.27-.98s-.33-.86-.91-1.03l-1.05-.31c-.83-.24-1.29-.85-1.29-1.57,0-.93.74-1.59,1.76-1.59s1.83.64,2.08,1.4l-.55.22c-.25-.69-.8-1.05-1.52-1.05-.68,0-1.13.38-1.13.98,0,.48.3.89.93,1.08l.93.28c.92.28,1.4.78,1.4,1.56,0,.95-.78,1.6-1.9,1.6s-1.97-.71-2.24-1.57Z"/>
          <path class="cls-2" d="M333.51,47.15c0-1.27.87-2.19,2.03-2.19s1.94,1,1.94,2.01c0,.1,0,.24-.03.38h-3.32c.02.91.72,1.47,1.47,1.47.61,0,1.02-.33,1.29-.77l.5.27c-.26.57-.94,1.05-1.8,1.05-1.18,0-2.09-.94-2.09-2.22ZM334.15,46.8h2.7c0-.76-.61-1.28-1.31-1.28s-1.3.49-1.39,1.28Z"/>
          <path class="cls-2" d="M338.44,47.16c0-1.26.86-2.2,2.1-2.2.78,0,1.48.46,1.76,1.08l-.54.28c-.21-.45-.66-.76-1.22-.76-.83,0-1.47.69-1.47,1.61s.64,1.61,1.47,1.61c.56,0,1-.31,1.22-.78l.54.29c-.28.61-.98,1.08-1.76,1.08-1.24,0-2.1-.95-2.1-2.21Z"/>
          <path class="cls-2" d="M343.32,47.72v-2.66h.59v2.59c0,.68.45,1.13,1.09,1.13s1.11-.46,1.11-1.21v-2.51h.59v4.22h-.59v-.52c-.25.39-.69.61-1.21.61-.89,0-1.58-.68-1.58-1.65Z"/>
          <path class="cls-2" d="M348.06,45.06h.59v.46c.22-.32.6-.51,1.11-.51h.27v.59h-.37c-.61,0-1.01.39-1.01,1.09v2.6h-.59v-4.22Z"/>
          <path class="cls-2" d="M350.54,47.15c0-1.27.87-2.19,2.03-2.19s1.94,1,1.94,2.01c0,.1,0,.24-.03.38h-3.32c.02.91.72,1.47,1.47,1.47.61,0,1.02-.33,1.29-.77l.5.27c-.26.57-.94,1.05-1.79,1.05-1.18,0-2.09-.94-2.09-2.22ZM351.18,46.8h2.7c0-.76-.61-1.28-1.31-1.28s-1.3.49-1.39,1.28Z"/>
          <path class="cls-2" d="M355.76,48.41h.63v.87h-.63v-.87Z"/>
          <path class="cls-2" d="M328.44,56.59c0-1.76,1.2-3.03,2.85-3.03,1.19,0,2.05.73,2.35,1.46l-.59.26c-.3-.68-.92-1.13-1.76-1.13-1.3,0-2.22.98-2.22,2.44s.92,2.43,2.22,2.43c.83,0,1.46-.44,1.76-1.13l.59.26c-.29.73-1.16,1.46-2.35,1.46-1.65,0-2.85-1.27-2.85-3.02Z"/>
          <path class="cls-2" d="M334.59,57.4c0-1.26.92-2.2,2.15-2.2s2.14.93,2.14,2.2-.97,2.21-2.14,2.21-2.15-.94-2.15-2.21ZM338.25,57.4c0-.91-.67-1.61-1.51-1.61s-1.52.69-1.52,1.61.67,1.62,1.52,1.62,1.51-.7,1.51-1.62Z"/>
          <path class="cls-2" d="M340.04,55.3h.59v.52c.25-.39.69-.61,1.21-.61.89,0,1.58.68,1.58,1.57v2.74h-.59v-2.51c0-.76-.45-1.21-1.09-1.21s-1.11.46-1.11,1.21v2.51h-.59v-4.22Z"/>
          <path class="cls-2" d="M344.72,55.3h.59v.52c.25-.39.69-.61,1.21-.61.89,0,1.58.68,1.58,1.57v2.74h-.59v-2.51c0-.76-.45-1.21-1.09-1.21s-1.11.46-1.11,1.21v2.51h-.59v-4.22Z"/>
          <path class="cls-2" d="M349.19,57.39c0-1.27.87-2.19,2.03-2.19s1.94,1,1.94,2.01c0,.1,0,.24-.03.38h-3.32c.02.91.72,1.47,1.47,1.47.61,0,1.02-.33,1.29-.77l.5.27c-.26.57-.94,1.05-1.79,1.05-1.18,0-2.09-.94-2.09-2.22ZM349.83,57.04h2.7c0-.76-.61-1.28-1.31-1.28s-1.3.49-1.39,1.28Z"/>
          <path class="cls-2" d="M354.12,57.4c0-1.26.86-2.2,2.1-2.2.78,0,1.48.46,1.76,1.08l-.54.28c-.21-.45-.66-.76-1.22-.76-.83,0-1.47.69-1.47,1.61s.64,1.61,1.47,1.61c.56,0,1-.31,1.22-.78l.54.29c-.28.61-.98,1.08-1.76,1.08-1.24,0-2.1-.95-2.1-2.21Z"/>
          <path class="cls-2" d="M359.53,58.29v-2.4h-.78v-.59h.2c.35,0,.58-.26.58-.62v-.35h.59v.98h.93v.59h-.93v2.4c0,.42.17.72.69.72.09,0,.21,0,.3-.02v.53c-.13.03-.31.05-.4.05-.76,0-1.18-.46-1.18-1.28Z"/>
          <path class="cls-2" d="M361.82,57.39c0-1.27.87-2.19,2.03-2.19s1.94,1,1.94,2.01c0,.1,0,.24-.03.38h-3.32c.02.91.72,1.47,1.47,1.47.61,0,1.02-.33,1.29-.77l.5.27c-.26.57-.94,1.05-1.8,1.05-1.18,0-2.09-.94-2.09-2.22ZM362.46,57.04h2.7c0-.76-.61-1.28-1.31-1.28s-1.3.49-1.39,1.28Z"/>
          <path class="cls-2" d="M366.75,57.41c0-1.27.88-2.2,2.08-2.2.66,0,1.2.28,1.54.73v-2.38h.59v5.96h-.59v-.68c-.32.5-.89.78-1.54.78-1.19,0-2.08-.94-2.08-2.2ZM370.37,57.41c0-.91-.66-1.61-1.51-1.61s-1.48.69-1.48,1.61.63,1.61,1.48,1.61,1.51-.7,1.51-1.61Z"/>
          <path class="cls-2" d="M372.47,58.65h.63v.87h-.63v-.87Z"/>
          <path class="cls-2" d="M330.15,63.89h.68l2.14,5.86h-.66l-.5-1.43h-2.62l-.51,1.43h-.66l2.14-5.86ZM331.58,67.74l-1.09-3.1-1.1,3.1h2.2Z"/>
          <path class="cls-2" d="M333.7,68.2v-2.66h.59v2.59c0,.69.45,1.13,1.09,1.13s1.11-.46,1.11-1.21v-2.51h.59v4.22h-.59v-.52c-.25.39-.69.61-1.21.61-.89,0-1.58-.68-1.58-1.65Z"/>
          <path class="cls-2" d="M338.8,68.53v-2.4h-.78v-.59h.2c.35,0,.58-.26.58-.62v-.35h.59v.98h.93v.59h-.93v2.4c0,.43.17.72.69.72.09,0,.21,0,.3-.02v.53c-.13.03-.31.05-.4.05-.76,0-1.18-.46-1.18-1.28Z"/>
          <path class="cls-2" d="M341.06,67.64c0-1.26.92-2.2,2.15-2.2s2.14.93,2.14,2.2-.97,2.21-2.14,2.21-2.15-.94-2.15-2.21ZM344.72,67.64c0-.91-.67-1.61-1.51-1.61s-1.52.69-1.52,1.61.67,1.62,1.52,1.62,1.51-.7,1.51-1.62Z"/>
          <path class="cls-2" d="M346.51,65.54h.59v.52c.25-.39.69-.61,1.17-.61.58,0,1.09.31,1.35.8.25-.52.77-.8,1.33-.8.85,0,1.57.68,1.57,1.57v2.74h-.59v-2.51c0-.76-.45-1.21-1.06-1.21s-1.07.46-1.07,1.21v2.51h-.59v-2.51c0-.76-.45-1.21-1.06-1.21s-1.07.46-1.07,1.21v2.51h-.59v-4.22Z"/>
          <path class="cls-2" d="M353.6,68.66c0-.65.41-1.17,1.35-1.33l1.53-.25v-.22c0-.5-.41-.85-.99-.85-.52,0-.92.28-1.11.69l-.54-.29c.24-.54.94-.97,1.65-.97.93,0,1.58.58,1.58,1.42v2.9h-.59v-.61c-.28.41-.83.7-1.48.7-.8,0-1.39-.5-1.39-1.19ZM355.03,69.32c.86,0,1.44-.61,1.44-1.38v-.32l-1.39.23c-.61.1-.86.41-.86.8s.33.68.8.68Z"/>
          <path class="cls-2" d="M358.71,68.53v-2.4h-.78v-.59h.2c.35,0,.58-.26.58-.62v-.35h.59v.98h.93v.59h-.93v2.4c0,.43.17.72.69.72.09,0,.21,0,.3-.02v.53c-.13.03-.31.05-.4.05-.76,0-1.18-.46-1.18-1.28Z"/>
          <path class="cls-2" d="M360.99,67.63c0-1.27.87-2.19,2.03-2.19s1.94,1,1.94,2.01c0,.1,0,.24-.03.38h-3.32c.02.91.72,1.47,1.47,1.47.61,0,1.02-.33,1.29-.77l.5.27c-.26.58-.94,1.06-1.8,1.06-1.18,0-2.09-.94-2.09-2.22ZM361.63,67.28h2.7c0-.76-.61-1.28-1.31-1.28s-1.3.49-1.39,1.28Z"/>
          <path class="cls-2" d="M365.93,67.65c0-1.27.88-2.2,2.08-2.2.66,0,1.2.28,1.54.73v-2.38h.59v5.96h-.59v-.68c-.32.5-.89.78-1.54.78-1.19,0-2.08-.94-2.08-2.2ZM369.55,67.65c0-.91-.66-1.61-1.51-1.61s-1.48.69-1.48,1.61.63,1.61,1.48,1.61,1.51-.7,1.51-1.61Z"/>
          <path class="cls-2" d="M371.64,68.89h.63v.87h-.63v-.87Z"/>
        </g>
        <g>
          <path class="cls-2" d="M132.44,29.81h-12.36v-6.55h31.84v6.55h-12.17v39.95h-7.3V29.81Z"/>
          <path class="cls-2" d="M151.98,35.99h6.74v4.31c1.75-3.37,4.87-4.74,8.99-4.74h2.06v6.43h-2.93c-4.68,0-7.8,3-7.8,8.3v19.48h-7.05v-33.77Z"/>
          <path class="cls-2" d="M173.74,23.25h7.05v8.11h-7.05v-8.11ZM173.74,35.99h7.05v33.77h-7.05v-33.77Z"/>
          <path class="cls-2" d="M186.88,52.84c0-9.99,7.3-17.6,16.92-17.6,4.68,0,8.49,1.75,11.05,4.68v-17.42h6.99v47.25h-6.68v-4.37c-2.5,3.31-6.68,5.12-11.3,5.12-9.74,0-16.98-7.68-16.98-17.67ZM214.85,52.84c0-6.37-4.43-11.05-10.3-11.05s-10.3,4.68-10.3,11.05,4.31,11.11,10.3,11.11,10.3-4.68,10.3-11.11Z"/>
          <path class="cls-2" d="M227.96,52.78c0-10.11,7.18-17.54,16.67-17.54,10.18,0,16.11,7.62,16.11,16.35,0,1.06-.06,2.31-.31,3.31h-25.09c.44,5.68,4.62,9.36,9.93,9.36,4.06,0,6.93-2.06,8.61-4.93l5.74,2.81c-2.06,4.81-7.55,8.36-14.42,8.36-10.11,0-17.23-7.74-17.23-17.73ZM235.45,49.28h17.79c-.25-4.81-3.87-8.11-8.61-8.11s-8.3,3-9.18,8.11Z"/>
          <path class="cls-2" d="M266.85,35.99h6.74v4.12c1.94-3.18,5.37-4.87,9.55-4.87,7.37,0,12.73,5.24,12.73,12.67v21.85h-6.99v-19.91c0-4.99-3.06-8.05-7.49-8.05s-7.49,3.06-7.49,8.05v19.91h-7.05v-33.77Z"/>
          <path class="cls-2" d="M305.48,58.71v-16.35h-5.93v-6.37h.94c3.12,0,4.99-1.94,4.99-5.12v-2.62h7.05v7.74h7.68v6.37h-7.68v16.04c0,3.43,1.56,5.49,5.62,5.49.62,0,1.5-.06,2.31-.19v6.05c-1.12.19-2.68.37-3.81.37-7.12,0-11.17-4.18-11.17-11.42Z"/>
        </g>
      </g>
      <g>
        <path class="cls-1" d="M48.41,0C21.72,0,0,21.72,0,48.41s21.72,48.41,48.41,48.41,48.41-21.72,48.41-48.41S75.11,0,48.41,0ZM48.41,90.84c-21.8,0-39.81-16.53-42.16-37.72h22.45l2.88,4.98-9.6,16.63,5.18,2.98,11.32-19.62-6.33-10.97H6.02C6.7,24.33,25.45,5.99,48.41,5.99s41.71,18.34,42.39,41.14h-26.12l-6.33,10.97,11.32,19.62,5.18-2.98-9.6-16.63,2.88-4.98h22.44c-2.35,21.19-20.36,37.72-42.16,37.72Z"/>
        <polygon class="cls-1" points="73.22 20.37 73.21 20.4 73.23 20.37 73.22 20.37"/>
        <polygon class="cls-1" points="55.43 52.54 73.78 20.77 59.43 29.48 59.43 33.66 51.75 46.97 51.75 27.97 54.1 25.63 48.41 9.58 42.73 25.63 45.08 27.97 45.08 46.97 37.4 33.66 37.4 29.48 23.05 20.77 41.4 52.54 45.08 52.54 45.08 70.46 42.73 72.8 48.41 88.86 54.1 72.8 51.75 70.46 51.75 52.54 55.43 52.54"/>
      </g>
    </g>
  </g>
</svg>