<?xml version="1.0" encoding="UTF-8"?>
<svg id="Layer_2" data-name="Layer 2" xmlns="http://www.w3.org/2000/svg" viewBox="0 0 184.42 184.42">
  <defs>
    <style>
      .cls-1 {
        fill: #ff6b6b;
      }
    </style>
  </defs>
  <g id="Layer_1-2" data-name="Layer 1">
    <g>
      <path class="cls-1" d="M92.21,0C41.37,0,0,41.37,0,92.21s41.37,92.21,92.21,92.21,92.21-41.37,92.21-92.21S143.06,0,92.21,0ZM92.21,173.02c-41.53,0-75.82-31.49-80.3-71.84h42.75l5.48,9.49-18.28,31.68,9.87,5.69,21.55-37.36-12.06-20.89H11.47C12.77,46.34,48.48,11.41,92.21,11.41s79.44,34.93,80.74,78.36h-49.76l-12.06,20.89,21.55,37.36,9.87-5.69-18.28-31.68,5.48-9.49h42.75c-4.48,40.35-38.77,71.84-80.3,71.84Z"/>
      <polygon class="cls-1" points="139.46 38.81 139.44 38.86 139.48 38.81 139.46 38.81"/>
      <polygon class="cls-1" points="105.58 100.08 140.53 39.55 113.2 56.15 113.2 64.1 98.56 89.46 98.56 53.28 103.04 48.82 92.21 18.24 81.39 48.82 85.87 53.28 85.87 89.46 71.23 64.1 71.23 56.15 43.9 39.55 78.85 100.08 85.87 100.08 85.87 134.21 81.39 138.67 92.21 169.25 103.04 138.67 98.56 134.21 98.56 100.08 105.58 100.08"/>
    </g>
  </g>
</svg>